<svg xmlns="http://www.w3.org/2000/svg" width="197" height="45" viewBox="0 0 197 45">
    <g fill="#AB8843" fill-rule="nonzero">
        <path d="M88.097 39.275c-.507.09-1.02.142-1.535.155-1.594 0-1.926-.871-1.926-2.081s.28-2.103 1.926-2.103a8.478 8.478 0 0 1 1.535.148l-.067.575a9.54 9.54 0 0 0-1.475-.155c-.908 0-1.026.517-1.026 1.535 0 1.018.14 1.475 1.026 1.475.494-.02.987-.072 1.475-.154l.067.605zM89.742 38.153c0 .546.273.701.893.701s.959-.148.959-.7V35.29h.885v2.863c0 .9-.738 1.277-1.844 1.277-1.107 0-1.778-.37-1.778-1.277V35.29h.885v2.863zm1.01-4.213l.85.79h-.694l-.989-.79h.834zM97.098 35.29v4.088h-1.092l-1.77-2.951v2.95h-.879V35.29h1.085l1.763 2.952V35.29zM101.496 36.013a10.743 10.743 0 0 0-1.683-.199c-.93 0-1.114.531-1.114 1.535 0 1.003.207 1.475 1.114 1.475.287-.01.572-.034.856-.073v-1.026h-.966v-.568h1.852v2.095c-.577.095-1.158.154-1.742.178-1.579 0-2.007-.864-2.007-2.081 0-1.218.37-2.103 2.007-2.103.59.002 1.179.064 1.756.184l-.073.583zM108.298 35.29v4.088h-1.084l-1.771-2.951v2.95h-.885V35.29h1.092l1.77 2.952V35.29zM112.15 37.63h-2.03v1.763h-.885V35.29h.886v1.756h2.029V35.29h.885v4.088h-.885zM116.333 35.29l1.528 4.088h-.893l-.391-1.011h-1.697l-.384 1.018h-.87l1.542-4.087 1.165-.008zm-.605.738l-.627 1.764h1.247l-.62-1.764zM119.248 38.153c0 .546.273.701.892.701.62 0 .96-.148.96-.7V35.29h.885v2.863c0 .9-.738 1.277-1.845 1.277-1.106 0-1.778-.37-1.778-1.277V35.29h.886v2.863zM128.677 35.29l-1.653 2.051 1.779 2.037h-1.04l-1.425-1.69h-.39v1.69h-.886V35.29h.885v1.712h.376l1.321-1.712zM132.27 37.63h-2.029v1.763h-.885V35.29h.885v1.756h2.03V35.29h.885v4.088h-.886zM136.446 35.29l1.528 4.088h-.9l-.384-1.011h-1.668l-.383 1.018h-.893l1.542-4.087 1.158-.008zm-.605.738l-.62 1.756h1.277l-.657-1.756zM138.535 35.29h.914v4.088h-.885zM142.106 35.29h3.858v.576h-1.475v3.512h-.878v-3.512h-1.476zM149.447 37.63h-2.036v1.763h-.886V35.29h.886v1.756h2.036V35.29h.878v4.088h-.878zM153.616 35.29l1.534 4.088h-.9l-.383-1.011h-1.697l-.384 1.018h-.9l1.542-4.087 1.188-.008zm-.561-1.24h.797l-.96.798h-.693l.856-.797zm-.044 1.986l-.62 1.756h1.247l-.627-1.756zM158.928 39.275c-.504.09-1.015.142-1.527.155-1.601 0-1.926-.871-1.926-2.081s.273-2.103 1.926-2.103a8.382 8.382 0 0 1 1.527.148l-.059.575a9.643 9.643 0 0 0-1.476-.155c-.907 0-1.033.517-1.033 1.535 0 1.018.14 1.475 1.033 1.475.495-.02.988-.072 1.476-.154l.06.605zM165.399 36.013a10.743 10.743 0 0 0-1.682-.199c-.923 0-1.115.531-1.115 1.535 0 1.003.207 1.475 1.115 1.475.286-.01.572-.034.855-.073v-1.026h-.966v-.568h1.852v2.095c-.576.095-1.158.154-1.741.178-1.58 0-2.007-.864-2.007-2.081 0-1.218.369-2.103 2.007-2.103.59.002 1.178.064 1.756.184l-.074.583zM166.41 35.29h.878v4.088h-.878zM170.578 35.29l1.535 4.088h-.9l-.391-1.011h-1.697l-.376 1.018h-.9l1.541-4.087 1.188-.008zm-.56-1.24h.79l-.953.798h-.693l.856-.797zm-.045 1.986l-.62 1.756h1.248l-.628-1.756zM174.341 35.29h3.867v.576h-1.476v3.512h-.886v-3.512h-1.475zM179.654 37.85v1.528h-.886V35.29h1.94c1.056 0 1.66.42 1.66 1.255a1.114 1.114 0 0 1-.833 1.18l1.085 1.653h-.967l-1.003-1.527h-.996zm1.055-.575c.612 0 .738-.221.738-.738 0-.516-.192-.679-.738-.679h-1.055v1.41l1.055.007zM183.313 35.29h1v4.088h-1V35.29zm.834 4.508v.524h-.667v-.524h.667zM79.346 22.054l-4.088-5.047v7.68h-3.91V11.806h3.91l5.091 6.582 5.091-6.582h3.918v12.883H85.44v-7.681l-4.087 5.047zM97.821 25.086c-4.87 0-6.22-2.154-6.22-4.796v-.738c0-2.648 1.35-4.803 6.22-4.803h.613c4.958 0 5.983 1.387 5.983 3.07v.191c0 1.542-.523 2.885-5.961 2.885a13.502 13.502 0 0 1-3.372-.346c.059 1.091.494 1.785 3.394 1.785a23.795 23.795 0 0 0 5.069-.575v2.877a30.2 30.2 0 0 1-5.313.48l-.413-.03zm-2.641-6.64c1.001.214 2.023.313 3.047.295 2.546 0 2.7-.391 2.7-.738s-.132-.908-2.479-.908c-2.346 0-3.04.487-3.268 1.35zM112.519 25.086c-4.877 0-6.22-2.154-6.22-4.796v-.738c0-2.648 1.343-4.803 6.22-4.803h.612c4.958 0 5.977 1.387 5.977 3.07v.191c0 1.542-.517 2.885-5.962 2.885a13.576 13.576 0 0 1-3.372-.346c.066 1.091.502 1.785 3.394 1.785 1.708-.01 3.41-.202 5.076-.575v2.877a30.2 30.2 0 0 1-5.312.48l-.413-.03zm-2.634-6.64c1 .214 2.023.313 3.047.295 2.545 0 2.7-.391 2.7-.738s-.132-.908-2.486-.908-3.04.487-3.261 1.35zM128.721 25.743c-1.128 2.213-2.213 3.74-5.068 3.74a8.278 8.278 0 0 1-1.83-.191v-2.73c.556.09 1.119.134 1.682.133a1.977 1.977 0 0 0 2.17-1.343l.154-.325-5.165-9.178v-.738h3.269l3.453 6.64 3.047-6.64h3.269v.738l-4.98 9.894zM137.14 24.688V11.805h3.918v9.813h10.027v3.07zM165.886 24.688h-.87l-1.174-.598a11.466 11.466 0 0 1-5.002.996c-4.7 0-6.05-1.52-6.05-3.224v-.192c0-1.616 1.475-2.951 5.983-2.951 1.22-.027 2.44.094 3.63.361-.044-1.018-.347-1.593-3.217-1.593-1.75-.001-3.494.192-5.201.575v-2.878a30.133 30.133 0 0 1 5.312-.48c4.848 0 6.589 1.477 6.589 4.221v5.763zm-3.483-2.42v-.871a14.757 14.757 0 0 0-3.416-.347c-2.59 0-2.715.458-2.715.841 0 .384.17.812 2.951.812a12.02 12.02 0 0 0 3.18-.435zM169.575 15.089l1.173.62a10.81 10.81 0 0 1 4.855-1.004c4.87 0 6.22 2.154 6.22 4.803v5.165h-3.483v-4.752c0-1.254 0-2.405-2.951-2.405a11.503 11.503 0 0 0-3.195.428v6.773h-3.482v-9.592l.863-.036zM197 24.688h-.87l-1.174-.598a11.12 11.12 0 0 1-4.833.996c-4.87 0-6.22-2.154-6.22-4.796v-.738c0-2.648 1.35-4.803 6.22-4.803 1.147-.01 2.29.139 3.394.443V10.33h.871L197 11.636v13.052zm-3.483-2.804v-3.97a11.74 11.74 0 0 0-3.157-.427c-2.952 0-2.952 1.15-2.952 2.405 0 1.254 0 2.398 2.952 2.398a12.056 12.056 0 0 0 3.157-.406zM62.265 19.22L52.172 2.022a4.088 4.088 0 0 0-7.054 0L36.73 16.313l-2.951 5.054h-4.715l-1.262-2.147L17.708 2.022a4.08 4.08 0 0 0-7.046 0L.568 19.22a4.088 4.088 0 0 0 3.527 6.154H18.26l10.057 17.14a3.593 3.593 0 0 0 6.198 0l10.056-17.14h14.166a4.088 4.088 0 0 0 3.527-6.154zM63.15 3.438h-.494v.87h-.678V1.927h1.335c.738 0 1.158.25 1.158.738a.664.664 0 0 1-.538.678l.738.96h-.738l-.701-.864h-.081zm.148-.383c.377 0 .458-.111.458-.384s-.104-.354-.458-.354h-.642v.738h.642z"/>
        <path d="M63.136.576a2.545 2.545 0 1 1 0 5.09 2.545 2.545 0 0 1 0-5.09m0-.576a3.121 3.121 0 1 0 3.114 3.114A3.114 3.114 0 0 0 63.136 0z"/>
    </g>
</svg>
