<?xml version="1.0" encoding="UTF-8"?>
<svg width="16px" height="16px" viewBox="0 0 16 16" version="1.1" xmlns="http://www.w3.org/2000/svg" xmlns:xlink="http://www.w3.org/1999/xlink">
    <title>Calender</title>
    <g id="Symbols" stroke="none" stroke-width="1" fill="none" fill-rule="evenodd">
        <g id="*Icon/Calendar" transform="translate(-2.000000, -2.000000)" fill="#787878" fill-rule="nonzero">
            <g id="Calender" transform="translate(2.000000, 2.000000)">
                <path d="M13.4700855,1.43589744 L2.52991453,1.43589744 C1.32149662,1.43589744 0.341880342,2.41551371 0.341880342,3.62393162 L0.341880342,13.4700855 C0.341880342,14.6785034 1.32149662,15.6581197 2.52991453,15.6581197 L13.4700855,15.6581197 C14.6785034,15.6581197 15.6581197,14.6785034 15.6581197,13.4700855 L15.6581197,3.62393162 C15.6581197,2.41551371 14.6785034,1.43589744 13.4700855,1.43589744 Z M2.52991453,2.52991453 L13.4700855,2.52991453 C14.0742944,2.52991453 14.5641026,3.01972267 14.5641026,3.62393162 L14.5641026,13.4700855 C14.5641026,14.0742944 14.0742944,14.5641026 13.4700855,14.5641026 L2.52991453,14.5641026 C1.92570557,14.5641026 1.43589744,14.0742944 1.43589744,13.4700855 L1.43589744,3.62393162 C1.43589744,3.01972267 1.92570557,2.52991453 2.52991453,2.52991453 Z" id="Rectangle"></path>
                <path d="M12.848547,1.98290598 L3.15145299,1.98290598 C1.90393162,1.98290598 0.888888889,3.01367521 0.888888889,4.28034188 L0.888888889,5.47008547 L1.43589744,5.47008547 C1.43589744,4.92307692 1.98290598,4.37606838 2.52991453,4.37606838 L13.4700855,4.37606838 C14.017094,4.37606838 14.5641026,4.92307692 14.5641026,5.47008547 L15.1111111,5.47008547 L15.1111111,4.28034188 C15.1111111,3.01367521 14.0960684,1.98290598 12.848547,1.98290598 Z" id="Path"></path>
                <circle id="Oval" cx="9.36752137" cy="7.17948718" r="1"></circle>
                <circle id="Oval" cx="12.1025641" cy="7.17948718" r="1"></circle>
                <circle id="Oval" cx="9.36752137" cy="9.91452991" r="1"></circle>
                <circle id="Oval" cx="12.1025641" cy="9.91452991" r="1"></circle>
                <circle id="Oval" cx="3.8974359" cy="9.91452991" r="1"></circle>
                <circle id="Oval" cx="6.63247863" cy="9.91452991" r="1"></circle>
                <circle id="Oval" cx="3.8974359" cy="12.6495726" r="1"></circle>
                <circle id="Oval" cx="6.63247863" cy="12.6495726" r="1"></circle>
                <circle id="Oval" cx="9.36752137" cy="12.6495726" r="1"></circle>
                <path d="M3.62393162,0.341880342 C3.92243962,0.341880342 4.16510102,0.58098807 4.17083636,0.87812408 L4.17094017,0.888888889 L4.17094017,1.98290598 C4.17094017,2.28501046 3.9260361,2.52991453 3.62393162,2.52991453 C3.32542363,2.52991453 3.08276223,2.2908068 3.07702689,1.99367079 L3.07692308,1.98290598 L3.07692308,0.888888889 C3.07692308,0.58678441 3.32182715,0.341880342 3.62393162,0.341880342 Z" id="Path"></path>
                <path d="M12.3760684,0.341880342 C12.6745764,0.341880342 12.9172378,0.58098807 12.9229731,0.87812408 L12.9230769,0.888888889 L12.9230769,1.98290598 C12.9230769,2.28501046 12.6781729,2.52991453 12.3760684,2.52991453 C12.0775604,2.52991453 11.834899,2.2908068 11.8291636,1.99367079 L11.8290598,1.98290598 L11.8290598,0.888888889 C11.8290598,0.58678441 12.0739639,0.341880342 12.3760684,0.341880342 Z" id="Path"></path>
            </g>
        </g>
    </g>
</svg>