<svg xmlns="http://www.w3.org/2000/svg" width="20" height="20" viewBox="0 0 20 20">
    <g fill="none" fill-rule="evenodd">
        <g fill="#787878">
            <g>
                <path d="M7.312 14.762c.664 0 1.203.539 1.203 1.203s-.539 1.203-1.203 1.203-1.203-.539-1.203-1.203.539-1.203 1.203-1.203zm8.421 0c.664 0 1.203.539 1.203 1.203s-.539 1.203-1.203 1.203-1.203-.539-1.203-1.203.539-1.203 1.203-1.203zM4.906 2.732c.288 0 .534.203.59.484l.002.013.23 1.307H17.17c.27 0 .527.121.698.33.168.205.238.473.19.733l-.002.017-1.083 5.413c-.084.417-.447.719-.87.725h-9.1l.212 1.203h9.12c.328 0 .595.263.601.59v.012c0 .328-.263.595-.59.601H6.711c-.288 0-.535-.203-.59-.484l-.003-.013-1.717-9.728H2.5c-.328 0-.595-.263-.602-.59v-.012c0-.328.263-.595.59-.601h2.418zm1.883 7.819h9.053l.962-4.812H5.94l.85 4.812z" transform="translate(-304 -97) translate(304 97)"/>
            </g>
        </g>
    </g>
</svg>
