<?xml version="1.0" encoding="UTF-8"?>
<svg width="18px" height="19px" viewBox="0 0 18 19" version="1.1" xmlns="http://www.w3.org/2000/svg" xmlns:xlink="http://www.w3.org/1999/xlink">
    <title>*Icon/cube-outline</title>
    <g id="Symbols" stroke="none" stroke-width="1" fill="none" fill-rule="evenodd">
        <g id="*Icon/cube-outline" transform="translate(-3.000000, -3.000000)" fill="#787878" fill-rule="nonzero">
            <g transform="translate(3.000000, 3.000000)">
                <path d="M7.3920802,0.379876536 C8.26206754,-0.12661504 9.33709913,-0.12661504 10.2069785,0.379813705 L10.2069785,0.379813705 L16.5406661,4.06585331 C17.1957841,4.44756427 17.5990747,5.14831017 17.6,5.90749563 L17.6,5.90749563 L17.6,13.0224956 C17.6,13.7809559 17.1970883,14.4823499 16.5411452,14.8651776 L16.5411452,14.8651776 L10.2074167,18.5512407 C9.7960949,18.7903046 9.33907628,18.9163266 8.87953473,18.9292824 C8.86302967,18.9311325 8.84616004,18.9316623 8.82916667,18.9316623 L8.78232722,18.9303367 C8.30226615,18.927219 7.82277286,18.8007863 7.39302148,18.5510109 L7.39302148,18.5510109 L1.05933347,14.864971 C0.403804548,14.4830201 0.000450988906,13.7816571 1.81188398e-13,13.0224956 L1.81188398e-13,13.0224956 L1.81188398e-13,5.90651997 C0.00092529188,5.14831017 0.404215853,4.44756427 1.05933393,4.06585331 L1.05933393,4.06585331 Z M1.599,6.49 L1.59999986,13.0220202 C1.59999986,13.2116917 1.70095096,13.3870325 1.86447852,13.4823137 L1.86447852,13.4823137 L8.029,17.069 L8.029,10.272 L1.599,6.49 Z M16,6.49 L9.629,10.238 L9.629,17.036 L15.7355,13.4828119 C15.8720004,13.4031461 15.9646811,13.268133 15.991783,13.1157245 L16.0000006,13.0224956 L16,6.49 Z M9.4020802,1.76261473 C9.02967276,1.54580556 8.56949391,1.54580556 8.19701808,1.76265454 L8.19701808,1.76265454 L2.426,5.121 L8.8,8.86974563 L15.173,5.121 Z"></path>
            </g>
        </g>
    </g>
</svg>