<?xml version="1.0" encoding="UTF-8"?>
<svg width="18px" height="20px" viewBox="0 0 18 20" version="1.1" xmlns="http://www.w3.org/2000/svg" xmlns:xlink="http://www.w3.org/1999/xlink">
    <title>Ghi chú Outline</title>
    <g id="Symbols" stroke="none" stroke-width="1" fill="none" fill-rule="evenodd">
        <g id="*Icon/Ghi-chú-Outline" transform="translate(-3.000000, -2.000000)" fill="#787878">
            <g id="Ghi-chú-Outline" transform="translate(3.000000, 2.000000)">
                <path d="M8.52042934,17.3978846 L9.96999824,18.8474535 L9.87030021,18.9480404 L7.9734581,19.3954089 L8.41977389,17.4985668 L8.52042934,17.3978846 Z M14.4670299,11.4523634 L15.9165036,12.9018371 L10.7138746,18.1035772 L9.26430567,16.6540083 L14.4670299,11.4523634 Z M16.0399616,9.80426563 C16.217571,9.69586926 16.4944896,9.71386379 16.6389598,9.85836895 L16.6389598,9.85836895 L17.4708899,10.6902991 L17.5308961,10.7628521 C17.5826703,10.8396124 17.6095321,10.928455 17.6095321,11.0245246 L17.6095321,11.0245246 L17.6006974,11.1182258 C17.5831032,11.2089712 17.5394569,11.290348 17.4717931,11.3578478 L17.4717931,11.3578478 L16.6370186,12.1918311 L15.1364982,10.6913107 L15.9705991,9.85845909 Z" id="Combined-Shape" fill-rule="nonzero"></path>
                <path d="M12.6315789,0 C13.7942837,0 14.7368421,0.942558421 14.7368421,2.10526316 L14.7368421,8.21938483 L4.9063271,17.8947368 L2.10526316,17.8947368 C0.942558421,17.8947368 0,16.9521784 0,15.7894737 L0,2.10526316 C0,0.942558421 0.942558421,0 2.10526316,0 L12.6315789,0 Z M12.7261849,1.58742702 L12.6315789,1.57894737 L2.10526316,1.57894737 C1.84688433,1.57894737 1.63199119,1.76513175 1.58742702,2.01065723 L1.57894737,2.10526316 L1.57894737,15.7894737 C1.57894737,16.0478525 1.76513175,16.2627457 2.01065723,16.3073098 L2.10526316,16.3157895 L4.25789474,16.3157895 L13.1578947,7.55684211 L13.1578947,2.10526316 C13.1578947,1.87918168 13.0153473,1.68639394 12.8152276,1.61187501 L12.7261849,1.58742702 Z" id="Rectangle" fill-rule="nonzero"></path>
                <rect id="Rectangle" x="3.15789474" y="4.21052632" width="8.42105263" height="1.36842105" rx="0.65"></rect>
                <rect id="Rectangle-Copy-3" x="3.15789474" y="7.36842105" width="6.31578947" height="1.36842105" rx="0.65"></rect>
                <rect id="Rectangle-Copy-4" x="3.15789474" y="10.5263158" width="3.15789474" height="1.36842105" rx="0.65"></rect>
            </g>
        </g>
    </g>
</svg>