<svg xmlns="http://www.w3.org/2000/svg" width="20" height="20" viewBox="0 0 20 20">
    <g fill="none" fill-rule="evenodd">
        <g>
            <g>
                <g>
                    <g fill="#FFF" transform="translate(-274 -208) translate(274 144) translate(0 64) translate(2.5 1.667)">
                        <path fill-rule="nonzero" d="M7.1 14.498l1.208 1.208-.083.084-1.58.373.371-1.58.083-.085zm4.956-4.954l1.208 1.208-4.336 4.334-1.208-1.208 4.336-4.334zm1.31-1.374c.149-.09.38-.075.5.045l.693.694.05.06c.043.064.066.138.066.218l-.008.078c-.014.076-.05.144-.107.2l-.696.695-1.25-1.25.695-.695zM10.526 0c.97 0 1.755.785 1.755 1.754V6.85l-8.192 8.063H1.754C.785 14.912 0 14.127 0 13.158V1.754C0 .785.785 0 1.754 0h8.772zm.08 1.323l-.08-.007H1.754c-.215 0-.394.155-.431.36l-.007.078v11.404c0 .215.155.394.36.431l.078.007h1.794l7.417-7.299V1.754c0-.188-.119-.349-.286-.41l-.074-.021z"/>
                        <rect width="7.018" height="1.14" x="2.632" y="3.509" rx=".57"/>
                        <rect width="5.263" height="1.14" x="2.632" y="6.14" rx=".57"/>
                        <rect width="2.632" height="1.14" x="2.632" y="8.772" rx=".57"/>
                    </g>
                    <path fill="#787878" d="M0 0H20V20H0z" transform="translate(-274 -208) translate(274 144) translate(0 64)"/>
                </g>
            </g>
        </g>
    </g>
</svg>
