<?xml version="1.0" encoding="UTF-8"?>
<svg width="20px" height="20px" viewBox="0 0 20 20" version="1.1" xmlns="http://www.w3.org/2000/svg" xmlns:xlink="http://www.w3.org/1999/xlink">
    <title>messenge-outline</title>
    <g id="Symbols" stroke="none" stroke-width="1" fill="none" fill-rule="evenodd">
        <g id="*Icon/messenge-outline" transform="translate(-2.000000, -2.000000)" fill="#787878" fill-rule="nonzero">
            <g id="Rectangle" transform="translate(2.000000, 2.000000)">
                <g id="Mask">
                    <path d="M17.0861063,2.90428619 C15.2187944,1.03607717 12.6833323,-0.0099877177 10.0419323,-0.00200047742 C4.55355691,-0.00200047742 0.0857140125,4.44356699 0.0834818768,9.90872815 C0.0810539417,11.6489556 0.539772962,13.3587545 1.41294192,14.8640695 L0,19.9979817 L5.27900103,18.6198611 C6.74025412,19.411481 8.37601121,19.825791 10.0379144,19.8252144 L10.0419323,19.8252144 C15.5298612,19.8252144 19.9972577,15.3792464 19.9999683,9.9145317 C20.0066518,7.28186006 18.9569898,4.75652801 17.0861063,2.90428619 Z M10.0419323,18.1524522 L10.0383609,18.1524522 C8.55684015,18.1528892 7.10225522,17.7564085 5.82587429,17.0042412 L5.52364311,16.8256704 L2.39106381,17.6435249 L3.22722186,14.6038025 L3.03034748,14.2913035 C2.20195092,12.9797794 1.76305147,11.4599643 1.76472174,9.90872815 C1.76472174,5.36722476 5.47944682,1.6721338 10.0450573,1.6721338 C14.605804,1.66400324 18.3098239,5.35423276 18.3186916,9.91497813 C18.3169059,14.4569279 14.6039713,18.1524522 10.0419323,18.1524522 Z M4.28735352,12.6947676 L9.29637695,6.80770508 L11.4245098,9.48364258 L16.3303223,6.80770508 L10.9486973,12.6947676 L8.99906445,10.1972051 L4.28735352,12.6947676 Z" id="messenge-outline"></path>
                </g>
            </g>
        </g>
    </g>
</svg>