<svg xmlns="http://www.w3.org/2000/svg" width="20" height="20" viewBox="0 0 20 20">
    <g fill="none" fill-rule="evenodd">
        <g fill="#787878">
            <g>
                <path d="M7.715 8.65c.391 0 .708.318.708.709 0 .361-.27.659-.62.703l-.088.005H5.72c-.391 0-.709-.317-.709-.708 0-.361.27-.66.62-.703l.089-.005h1.994zM12.222 5.29c.391 0 .708.317.708.708 0 .361-.27.66-.62.703l-.088.005H5.72c-.391 0-.709-.317-.709-.708 0-.361.27-.66.62-.703l.089-.005h6.5z" transform="translate(-523 -97) translate(523 97)"/>
                <path d="M12.917 1.948c1.38 0 2.5 1.12 2.5 2.5v4.269c-.385-.148-.79-.255-1.208-.318V4.448c0-.674-.516-1.227-1.175-1.286l-.117-.006H5c-.674 0-1.227.516-1.286 1.174l-.006.118v11.25c0 .674.516 1.227 1.174 1.286L5 16.99h3.227c.245.44.545.847.89 1.209L5 18.198c-1.38 0-2.5-1.12-2.5-2.5V4.448c0-1.38 1.12-2.5 2.5-2.5h7.917z" transform="translate(-523 -97) translate(523 97)"/>
                <path d="M13.333 9.167c2.757 0 5 2.243 5 5s-2.243 5-5 5-5-2.243-5-5 2.243-5 5-5zm-.268 2.823c-.329 0-.596.266-.596.595l-.007 2.198c0 .659.532 1.19 1.187 1.19.045-.002.09 0 .137 0h2.153c.328 0 .595-.266.595-.595 0-.329-.267-.595-.595-.595h-2.287l.007-2.198c0-.33-.266-.595-.594-.595z" transform="translate(-523 -97) translate(523 97)"/>
            </g>
        </g>
    </g>
</svg>
