<?xml version="1.0" encoding="UTF-8"?>
<svg width="18px" height="18px" viewBox="0 0 18 18" version="1.1" xmlns="http://www.w3.org/2000/svg" xmlns:xlink="http://www.w3.org/1999/xlink">
    <title>play-circle-outline</title>
    <g id="Symbols" stroke="none" stroke-width="1" fill="none" fill-rule="evenodd">
        <g id="*Icon/play-circle-outline" transform="translate(-3.000000, -3.000000)" fill="#787878" fill-rule="nonzero">
            <g id="Rectangle" transform="translate(3.000000, 3.000000)">
                <g id="Mask">
                    <path d="M9,0.2 C13.8584945,0.2 17.8,4.14150553 17.8,9 C17.8,13.8584945 13.8584945,17.8 9,17.8 C4.14150553,17.8 0.2,13.8584945 0.2,9 C0.2,4.14150553 4.14150553,0.2 9,0.2 Z M9,1.8 C5.02516113,1.8 1.8,5.02516113 1.8,9 C1.8,12.9748389 5.02516113,16.2 9,16.2 C12.9748389,16.2 16.2,12.9748389 16.2,9 C16.2,5.02516113 12.9748389,1.8 9,1.8 Z M6.89325995,5.72682826 C7.03417841,5.64643911 7.2074958,5.64828862 7.34666667,5.73166667 L7.34666667,5.73166667 L12.1154167,8.6125 C12.2505974,8.69485665 12.3330887,8.84170768 12.3330887,9 C12.3330887,9.15829232 12.2505974,9.30514335 12.1154167,9.3875 L12.1154167,9.3875 L7.34666667,12.2683333 C7.2074958,12.3517114 7.03417841,12.3535609 6.89325995,12.2731717 C6.75234148,12.1927826 6.66572487,12.0426497 6.66665906,11.8804167 L6.66665906,11.8804167 L6.66665906,6.11958333 C6.66572487,5.95735035 6.75234148,5.8072174 6.89325995,5.72682826 Z" id="play-circle-outline"></path>
                </g>
            </g>
        </g>
    </g>
</svg>