<?xml version="1.0" encoding="UTF-8"?>
<svg width="26px" height="30px" viewBox="0 0 26 30" version="1.1" xmlns="http://www.w3.org/2000/svg" xmlns:xlink="http://www.w3.org/1999/xlink">
    <title>V1</title>
    <g id="Đăng-bài--Website" stroke="none" stroke-width="1" fill="none" fill-rule="evenodd">
        <g id="V1" fill="#993393">
            <path d="M20,0 C23.3137085,0 26,2.6862915 26,6 L26,24 C26,27.3137085 23.3137085,30 20,30 L6,30 C2.6862915,30 0,27.3137085 0,24 L0,6 C0,2.6862915 2.6862915,0 6,0 L20,0 Z M20,2 L6,2 C3.85780461,2 2.10892112,3.68396847 2.00489531,5.80035966 L2,6 L2,24 C2,26.1421954 3.68396847,27.8910789 5.80035966,27.9951047 L6,28 L20,28 C22.1421954,28 23.8910789,26.3160315 23.9951047,24.1996403 L24,24 L24,6 C24,3.85780461 22.3160315,2.10892112 20.1996403,2.00489531 L20,2 Z M17.5406028,22.2762961 C17.9459661,22.2762961 18.274602,22.6089481 18.274602,23.0192652 C18.274602,23.4295822 17.9459661,23.7622342 17.5406028,23.7622342 L8.73399922,23.7622342 C8.32863592,23.7622342 8,23.4295822 8,23.0192652 C8,22.6089481 8.32863592,22.2762961 8.73399922,22.2762961 L17.5406028,22.2762961 Z M15.5226251,19.0648511 C15.9279884,19.0648511 16.2566243,19.3975031 16.2566243,19.8078201 C16.2566243,20.2181371 15.9279884,20.5507891 15.5226251,20.5507891 L10.7519769,20.5507891 C10.3466136,20.5507891 10.0179777,20.2181371 10.0179777,19.8078201 C10.0179777,19.3975031 10.3466136,19.0648511 10.7519769,19.0648511 L15.5226251,19.0648511 Z M13.137301,7 C13.3496225,7 13.5515702,7.09306925 13.6909811,7.2551851 L17.6655868,11.878087 C17.8544204,12.0977582 17.8991454,12.4088146 17.779895,12.6738068 C17.6606446,12.9387991 17.3995366,13.10884 17.1119068,13.10884 L15.5839651,13.10884 L15.5839651,16.6585974 C15.5839651,17.0689145 15.2553291,17.4015665 14.8499658,17.4015665 L11.4246362,17.4015665 C11.0192729,17.4015665 10.6906369,17.0689145 10.6906369,16.6585974 L10.6906369,13.10884 L9.16269525,13.10884 C8.87506542,13.10884 8.6139085,12.9387496 8.49470703,12.6738068 C8.37550555,12.4088146 8.42018164,12.0977582 8.60901517,11.8781365 L12.5836209,7.25523463 C12.7230318,7.09306925 12.9249795,7 13.137301,7 Z" id="Combined-Shape"></path>
        </g>
    </g>
</svg>