<svg xmlns="http://www.w3.org/2000/svg" width="32" height="36" viewBox="0 0 32 36">
    <g fill="none" fill-rule="evenodd">
        <g>
            <g>
                <path fill="#DD8C43" d="M19.131 34.416c-1.916 1.391-4.346 1.391-6.262 0L1.529 26.18C.577 25.49 0 24.28 0 22.976V4c0-2.21 1.79-4 4-4h24c2.21 0 4 1.79 4 4v18.976c0 1.303-.578 2.514-1.528 3.204l-11.34 8.236z" transform="translate(-470 -649) translate(470 649)"/>
                <g fill="#FFF">
                    <path d="M6.098 12.56c.312-.113.692-.217 1.139-.31.447-.095.9-.142 1.357-.142.364 0 .705.038 1.025.113.32.075.6.2.84.372.24.174.428.406.566.7.138.293.207.654.207 1.083 0 .3-.032.566-.098.795-.065.23-.18.434-.343.614-.164.181-.387.34-.67.475-.284.135-.644.26-1.08.372-.24.06-.443.119-.61.175-.168.056-.302.134-.404.231-.102.098-.176.222-.223.373-.048.15-.07.345-.07.586v.541h3.51v1.354h-5.19l.022-1.895c0-.429.06-.799.18-1.111.12-.313.292-.58.517-.801.226-.222.502-.403.83-.542.326-.138.693-.254 1.1-.344.182-.045.329-.088.442-.13.112-.041.201-.091.267-.152.065-.06.109-.133.13-.22.022-.086.033-.193.033-.321 0-.346-.089-.583-.267-.71-.178-.129-.43-.193-.757-.193s-.687.05-1.08.147c-.392.098-.774.196-1.145.293l-.228-1.354zM2.965 8.649L0 0 1.718 0 3.892 6.919 6.067 0 7.784 0 4.819 8.649zM8.649 8.649L10.378 8.649 10.378 0 8.649 0zM13.627 4.232h1.845c.355 0 .639-.117.852-.352.212-.235.319-.61.319-1.129 0-.502-.107-.874-.32-1.117-.212-.242-.496-.363-.85-.363h-1.846v2.96zM15.717 0c.369 0 .704.062 1.005.185.302.124.559.303.77.537.212.234.376.522.494.863.117.342.176.73.176 1.166 0 .452-.059.851-.176 1.197-.118.346-.285.634-.5.864-.217.23-.476.403-.778.518-.303.115-.635.172-.996.172h-2.085V8.65h-1.519V.012L15.718 0z" transform="translate(-470 -649) translate(470 649) translate(6.054 7.784)"/>
                </g>
            </g>
        </g>
    </g>
</svg>
