<svg xmlns="http://www.w3.org/2000/svg" width="32" height="36" viewBox="0 0 32 36">
    <g fill="none" fill-rule="evenodd">
        <g>
            <g>
                <path fill="#BC975C" d="M19.131 34.416c-1.916 1.391-4.346 1.391-6.262 0L1.529 26.18C.577 25.49 0 24.28 0 22.976V4c0-2.21 1.79-4 4-4h24c2.21 0 4 1.79 4 4v18.976c0 1.303-.578 2.514-1.528 3.204l-11.34 8.236z" transform="translate(-470 -355) translate(470 355)"/>
                <g fill="#FFF">
                    <path d="M9.426 15.196c.06-.007.122-.012.187-.016.063-.004.125-.006.186-.006.143 0 .279.011.407.034.46.09.82.31 1.08.662.261.35.39.843.39 1.476 0 .483-.067.886-.203 1.21-.135.325-.331.587-.588.787-.257.2-.571.341-.945.425-.373.082-.797.124-1.273.124-.4 0-.822-.023-1.266-.068-.446-.046-.91-.106-1.392-.182l.226-1.3c.347.045.705.094 1.075.147.37.052.713.079 1.03.079.535 0 .936-.09 1.204-.271.268-.182.402-.498.402-.95 0-.22-.028-.402-.085-.55-.056-.147-.132-.263-.226-.35-.094-.087-.208-.15-.34-.187-.132-.037-.273-.056-.424-.056-.21 0-.43.028-.656.084-.226.057-.438.119-.634.187l-.52-.905 2.229-2.104H6.246v-1.358h5.103v1.176l-1.923 1.912zM2.965 8.649L0 0 1.718 0 3.892 6.919 6.067 0 7.784 0 4.819 8.649zM8.649 8.649L10.378 8.649 10.378 0 8.649 0zM13.28 4.232h1.845c.355 0 .639-.117.852-.352.212-.235.319-.61.319-1.129 0-.502-.107-.874-.32-1.117-.212-.242-.496-.363-.85-.363H13.28v2.96zM15.37 0c.369 0 .704.062 1.005.185.302.124.559.303.77.537.212.234.376.522.494.863.117.342.176.73.176 1.166 0 .452-.059.851-.176 1.197-.118.346-.285.634-.5.864-.217.23-.476.403-.778.518-.303.115-.635.172-.996.172H13.28V8.65h-1.519V.012L15.371 0z" transform="translate(-470 -355) translate(470 355) translate(6.1 7.784)"/>
                </g>
            </g>
        </g>
    </g>
</svg>
